<svg xmlns="http://www.w3.org/2000/svg" viewBox="0 0 141 141"><defs><style>.cls-1{fill:#2f65b2;}</style></defs><title>Asset 3</title><g id="Layer_2" data-name="Layer 2"><g id="Layer_1-2" data-name="Layer 1"><path class="cls-1" d="M134.43,0H6.57A6.57,6.57,0,0,0,0,6.57V134.43A6.57,6.57,0,0,0,6.57,141H134.43a6.57,6.57,0,0,0,6.57-6.57V6.57A6.57,6.57,0,0,0,134.43,0ZM13,135.74A7.73,7.73,0,1,1,20.72,128,7.73,7.73,0,0,1,13,135.74Zm0-19.17a7.73,7.73,0,1,1,7.73-7.73A7.73,7.73,0,0,1,13,116.57ZM13,97.4a7.73,7.73,0,1,1,7.73-7.73A7.73,7.73,0,0,1,13,97.4Zm0-19.17a7.73,7.73,0,1,1,7.73-7.73A7.73,7.73,0,0,1,13,78.23Zm0-19.17a7.73,7.73,0,1,1,7.73-7.73A7.73,7.73,0,0,1,13,59.06Zm0-19.17a7.73,7.73,0,1,1,7.73-7.73A7.73,7.73,0,0,1,13,39.89Zm0-19.17A7.73,7.73,0,1,1,20.72,13,7.73,7.73,0,0,1,13,20.72Zm19.17,115A7.73,7.73,0,1,1,39.89,128,7.73,7.73,0,0,1,32.16,135.74Zm0-19.17a7.73,7.73,0,1,1,7.73-7.73A7.73,7.73,0,0,1,32.16,116.57Zm0-19.17a7.73,7.73,0,1,1,7.73-7.73A7.73,7.73,0,0,1,32.16,97.4Zm0-19.17a7.73,7.73,0,1,1,7.73-7.73A7.73,7.73,0,0,1,32.16,78.23Zm0-19.17a7.73,7.73,0,1,1,7.73-7.73A7.73,7.73,0,0,1,32.16,59.06Zm0-19.17a7.73,7.73,0,1,1,7.73-7.73A7.73,7.73,0,0,1,32.16,39.89Zm0-19.17A7.73,7.73,0,1,1,39.89,13,7.73,7.73,0,0,1,32.16,20.72Zm19.17,115A7.73,7.73,0,1,1,59.06,128,7.73,7.73,0,0,1,51.33,135.74Zm0-19.17a7.73,7.73,0,1,1,7.73-7.73A7.73,7.73,0,0,1,51.33,116.57Zm0-19.17a7.73,7.73,0,1,1,7.73-7.73A7.73,7.73,0,0,1,51.33,97.4Zm0-19.17a7.73,7.73,0,1,1,7.73-7.73A7.73,7.73,0,0,1,51.33,78.23Zm0-19.17a7.73,7.73,0,1,1,7.73-7.73A7.73,7.73,0,0,1,51.33,59.06Zm0-19.17a7.73,7.73,0,1,1,7.73-7.73A7.73,7.73,0,0,1,51.33,39.89Zm0-19.17A7.73,7.73,0,1,1,59.06,13,7.73,7.73,0,0,1,51.33,20.72Zm19.17,115A7.73,7.73,0,1,1,78.23,128,7.73,7.73,0,0,1,70.5,135.74Zm0-19.17a7.73,7.73,0,1,1,7.73-7.73A7.73,7.73,0,0,1,70.5,116.57Zm0-19.17a7.73,7.73,0,1,1,7.73-7.73A7.73,7.73,0,0,1,70.5,97.4Zm0-19.17a7.73,7.73,0,1,1,7.73-7.73A7.73,7.73,0,0,1,70.5,78.23Zm0-19.17a7.73,7.73,0,1,1,7.73-7.73A7.73,7.73,0,0,1,70.5,59.06Zm0-19.17a7.73,7.73,0,1,1,7.73-7.73A7.73,7.73,0,0,1,70.5,39.89Zm0-19.17A7.73,7.73,0,1,1,78.23,13,7.73,7.73,0,0,1,70.5,20.72Zm19.17,115A7.73,7.73,0,1,1,97.4,128,7.73,7.73,0,0,1,89.67,135.74Zm0-19.17a7.73,7.73,0,1,1,7.73-7.73A7.73,7.73,0,0,1,89.67,116.57Zm0-19.17a7.73,7.73,0,1,1,7.73-7.73A7.73,7.73,0,0,1,89.67,97.4Zm0-19.17A7.73,7.73,0,1,1,97.4,70.5,7.73,7.73,0,0,1,89.67,78.23Zm0-19.17a7.73,7.73,0,1,1,7.73-7.73A7.73,7.73,0,0,1,89.67,59.06Zm0-19.17a7.73,7.73,0,1,1,7.73-7.73A7.73,7.73,0,0,1,89.67,39.89Zm0-19.17A7.73,7.73,0,1,1,97.4,13,7.73,7.73,0,0,1,89.67,20.72Zm19.17,115a7.73,7.73,0,1,1,7.73-7.73A7.73,7.73,0,0,1,108.84,135.74Zm0-19.17a7.73,7.73,0,1,1,7.73-7.73A7.73,7.73,0,0,1,108.84,116.57Zm0-19.17a7.73,7.73,0,1,1,7.73-7.73A7.73,7.73,0,0,1,108.84,97.4Zm0-19.17a7.73,7.73,0,1,1,7.73-7.73A7.73,7.73,0,0,1,108.84,78.23Zm0-19.17a7.73,7.73,0,1,1,7.73-7.73A7.73,7.73,0,0,1,108.84,59.06Zm0-19.17a7.73,7.73,0,1,1,7.73-7.73A7.73,7.73,0,0,1,108.84,39.89Zm0-19.17A7.73,7.73,0,1,1,116.57,13,7.73,7.73,0,0,1,108.84,20.72Zm19.17,115a7.73,7.73,0,1,1,7.73-7.73A7.73,7.73,0,0,1,128,135.74Zm0-19.17a7.73,7.73,0,1,1,7.73-7.73A7.73,7.73,0,0,1,128,116.57Zm0-19.17a7.73,7.73,0,1,1,7.73-7.73A7.73,7.73,0,0,1,128,97.4Zm0-19.17a7.73,7.73,0,1,1,7.73-7.73A7.73,7.73,0,0,1,128,78.23Zm0-19.17a7.73,7.73,0,1,1,7.73-7.73A7.73,7.73,0,0,1,128,59.06Zm0-19.17a7.73,7.73,0,1,1,7.73-7.73A7.73,7.73,0,0,1,128,39.89Zm0-19.17A7.73,7.73,0,1,1,135.74,13,7.73,7.73,0,0,1,128,20.72Z"/></g></g></svg>